# xmcd
#
# Track frame offsets:
#	150
#	8494
#	22069
#	30577
#	41736
#	56585
#	68002
#	77523
#	91379
#	99900
#	108254
#	127945
#	142384
#	150359
#
# Disc length: 2217
#
# Revision: 2
# Processed by: cddbd v1.5.1PL0 Copyright (c) Steve Scherf et al.
# Submitted via: audiograbber 1.81.01
# Normalized: r1:TRMNUM
#
DISCID=a508a70e
DTITLE=National Knights Of The Ku-Klux-Klan - National Knights Of The Ku-Klux-Klan
DYEAR=1900
DGENRE=
TTITLE0=Johnny Rebel
TTITLE1=Everybodys Dixie
TTITLE2=Oh, I'm A Good Old Rebel
TTITLE3=Wait For The Wagon
TTITLE4=For Bales
TTITLE5=Rebel Soldier
TTITLE6=When Johnny Comes Marching Home
TTITLE7=Ain't I Right
TTITLE8=The South Gonna Rise Again
TTITLE9=Stand Up And Be Counted
TTITLE10=The FIery Crosses
TTITLE11=Ballad Of Gordon Kahl
TTITLE12=For Right And Justice We Ride
TTITLE13=Pride
EXTD=
EXTT0=
EXTT1=
EXTT2=
EXTT3=
EXTT4=
EXTT5=
EXTT6=
EXTT7=
EXTT8=
EXTT9=
EXTT10=
EXTT11=
EXTT12=
EXTT13=
PLAYORDER=
